<?xml version="1.0" encoding="utf-8"?>
<!-- Generator: Adobe Illustrator 25.2.1, SVG Export Plug-In . SVG Version: 6.00 Build 0)  -->
<svg version="1.1" xmlns="http://www.w3.org/2000/svg" xmlns:xlink="http://www.w3.org/1999/xlink" x="0px" y="0px"
	 viewBox="0 0 1920 1080" style="enable-background:new 0 0 1920 1080;" xml:space="preserve">
<style type="text/css">
	.st0{fill:#C61D66;}
	.st1{fill:#705A61;}
</style>
<g id="Layer_1">
	<g>
		<path class="st0" d="M974.63,333.72c238.14-56.65,73.13-137.16-100.87-75.32s-241.6,134.83-86.29,275.92
			c10.59,9.61,20.03,18.73,28.42,27.39c-0.37,0.15-0.56,0.23-0.56,0.23c-181.19,83.91-148.83,188.65-24.26,184.38
			c119.31-4.1,131.27-101.36,52.68-178.58c46.49-20.31,96.07-37.7,134.98-50.24c2.23-0.71,4.41-1.42,6.56-2.1
			c1.27-1.62,2.94-2.79,5.01-3.52c2.14-0.76,4.19-0.76,6.18,0c4-1.25,7.85-2.44,11.5-3.55c4.22-1.28,8.19-2.48,11.88-3.57
			c94.51-28.06,22.52-11.76,22.52-11.76c-77.91,14.35-174.3,49.01-211.45,62.98c-88.64-77.45-105.65-116.43-105.65-116.43
			c-46.37-115.44,167.54-168.7,178.32-172.97c10.79-4.27,86.64-21.74,102.29,13C1021.31,313.85,975.85,333.21,974.63,333.72z
			 M852.91,710.33c-104.98,44.9-142.37-3.56-142.37-3.56c-35.59-45.06,32.95-93.19,117.57-132.03
			C925.17,682.25,852.91,710.33,852.91,710.33z"/>
	</g>
	<g>
	</g>
	<g>
		<path class="st1" d="M982.19,628.17l-0.2-0.04c-5.17,14.18-14.59,25.13-28.27,32.85l1.92,2c6.08-2.76,11.81-6.53,17.18-11.26
			c4.94-4.34,9.4-11.06,13.37-20.16c0.35-0.81,0.71-1.64,1.06-2.49L982.19,628.17z M967.58,621.37c-2.04-5.66-5.81-9.32-11.33-10.95
			c-5.52-1.63-12.14-1.08-19.84,1.63c-8.04,2.85-15.06,7.44-21.06,13.77c-6,6.34-12.45,17.93-19.33,34.8l5.31,1.04
			c2.03-5.46,3.5-9.01,4.39-10.65c0.26,2.4,0.9,4.98,1.88,7.73c1.86,5.18,5.55,8.67,11.03,10.5c5.5,1.82,11.82,1.47,18.99-1.07
			c11.06-3.91,19.54-10.67,25.46-20.27C969,638.3,970.49,629.45,967.58,621.37z M957.8,646.94c-2.61,5.2-7.29,8.99-14.01,11.37
			c-13.01,4.6-21.59,1.11-25.76-10.48c-2.35-6.55-2.27-12.34,0.26-17.35c2.53-5.02,7.03-8.66,13.48-10.95
			c6.11-2.16,11.56-2.35,16.39-0.59c4.82,1.75,8.2,5.35,10.16,10.8C960.59,636,960.41,641.75,957.8,646.94z"/>
		<path class="st1" d="M1083.69,594.95l-5.06-1.21c-0.24,0.59-0.49,1.16-0.72,1.73c-4.72,10.87-9.27,17.07-13.63,18.62
			c-2.57,0.9-4.79-1.25-6.68-6.5l-7.48-20.79c-3.25-9.03-8.95-12.11-17.09-9.24c-5.03,1.79-9.35,4.77-12.93,8.95
			c-3.58,4.18-7.37,10.67-11.39,19.47l-7.01-19.44c11.97-34.63,15.74-58.1,11.29-70.45c-1.24-3.45-2.91-6.03-5.02-7.75
			c-3.67-2.99-8.65-3.38-14.94-1.16c-5.85,2.08-10.63,5.51-14.3,10.33c-1.55,2.02-2.9,4.27-4.07,6.78
			c-3.93,8.45-4.14,17.6-0.61,27.39l16.08,44.67c0.37,1.04-0.18,4.65-1.63,10.84c-1.47,6.19-2.71,10.79-3.71,13.78
			c-0.79,2.31-1.65,4.71-2.6,7.21c-0.27,0.76-0.57,1.52-0.87,2.29l4.87,1.09l0.18,0.04c3.29-6.92,5.97-14.71,8.04-23.37l13.1,36.41
			l11.02-11.35l-5.69-15.83c-0.48-1.31-0.05-4.5,1.25-9.59c1.31-5.1,3.31-9.45,5.99-13.08c2.68-3.63,5.56-5.99,8.67-7.09
			c3.99-1.4,6.68-0.13,8.1,3.79l8.15,22.65c2.01,5.58,4.1,8.97,6.27,10.14c2.16,1.17,4.75,1.23,7.76,0.18
			c10.08-3.57,18.31-13.39,24.69-29.49L1083.69,594.95z M985.27,540.86c-2.71-7.54-3.61-13.87-2.68-19.03
			c0.48-2.63,1.37-4.77,2.71-6.45c1.27-1.62,2.94-2.79,5.01-3.52c2.14-0.76,4.19-0.76,6.18,0c0.64,0.23,1.28,0.55,1.89,0.94
			c2.57,1.62,4.48,4.15,5.71,7.6c2.15,5.95,2.84,13.12,2.1,21.51c-0.75,8.4-3.31,20.31-7.67,35.71L985.27,540.86z"/>
		<path class="st1" d="M1172.17,560.66c-2.41,5.76-4.87,10.4-7.39,13.93c-2.53,3.53-4.63,5.6-6.3,6.19c-1.96,0.69-3.28,0.73-4,0.13
			c-0.71-0.61-1.74-2.76-3.07-6.5l-12.67-35.15l-10,8.78c-5.28-0.54-10.22,0-14.82,1.62c-6.46,2.29-13.03,7.63-19.74,16.02
			c-6.5,8.16-11.93,18.1-16.27,29.79c-0.14,0.32-0.26,0.66-0.38,1l5.22,0.84c0.33-0.84,0.65-1.62,0.94-2.35
			c1.58-3.9,2.63-6.39,3.16-7.5l1.59,4.45c2.22,6.14,5.99,10.32,11.33,12.55c5.33,2.22,11.4,2.14,18.22-0.27
			c4.69-1.66,8.59-3.91,11.7-6.76c3.12-2.86,6.41-7.77,9.88-14.75c1.82,4.8,3.81,7.67,5.95,8.63c2.14,0.96,5.02,0.78,8.65-0.5
			c9.27-3.28,16.72-12.31,22.31-27.12c0.22-0.58,0.42-1.16,0.64-1.75L1172.17,560.66z M1133.4,582.82c-2.38,4.38-5.62,7.29-9.7,8.74
			c-5.24,1.85-9.85,1.94-13.85,0.28c-4-1.64-6.9-4.96-8.68-9.92c-2.07-5.73-1.66-11.27,1.21-16.64c2.87-5.37,6.98-8.99,12.31-10.88
			c4.97-1.75,9.74-1.85,14.31-0.27l7.47,20.78C1136.8,575.81,1135.78,578.44,1133.4,582.82z"/>
		<path class="st1" d="M1262.67,528.67c-5.24,12.03-10.03,18.81-14.35,20.35c-1.77,0.62-3.1,0.32-4-0.92
			c-0.9-1.24-2.01-3.72-3.35-7.44l-4.99-13.86c-2.93-8.13-5.78-12.88-8.56-14.23c-2.78-1.35-6.03-1.38-9.74-0.05
			c-4.07,1.43-7.65,4.1-10.73,8c-3.09,3.88-6.54,10.63-10.37,20.21l-6.93-19.23l-11.25,9.45c0.49,8.05-1.58,17.96-6.22,29.7
			c-0.35,0.89-0.72,1.81-1.1,2.72l5.03,1.13c0.14-0.27,0.26-0.55,0.38-0.82c3.33-7.24,5.39-13.94,6.14-20.13l12.52,34.75
			l10.88-11.31l-6.71-18.61c-0.15-0.42,0.72-3.07,2.6-7.97c1.88-4.89,3.4-8.47,4.59-10.72c1.18-2.25,2.41-4.06,3.66-5.43
			c1.25-1.38,2.59-2.31,4-2.8c2.91-1.04,5.03,0.27,6.34,3.92l8.53,23.69c2.08,5.78,4.26,9.2,6.52,10.22
			c2.27,1.02,4.99,0.98,8.18-0.15c9.73-3.44,17.74-13.19,24.03-29.25L1262.67,528.67z"/>
	</g>
</g>
<g id="Layer_2">
</g>
</svg>
